<svg id="visual" viewBox="0 0 1280 700" width="1280" height="700" xmlns="http://www.w3.org/2000/svg" xmlns:xlink="http://www.w3.org/1999/xlink" version="1.1"><path d="M440 700L473.7 683.3C507.3 666.7 574.7 633.3 608.5 600C642.3 566.7 642.7 533.3 635.3 500C628 466.7 613 433.3 631 400C649 366.7 700 333.3 756.8 300C813.7 266.7 876.3 233.3 900.7 200C925 166.7 911 133.3 872.8 100C834.7 66.7 772.3 33.3 741.2 16.7L710 0L1280 0L1280 16.7C1280 33.3 1280 66.7 1280 100C1280 133.3 1280 166.7 1280 200C1280 233.3 1280 266.7 1280 300C1280 333.3 1280 366.7 1280 400C1280 433.3 1280 466.7 1280 500C1280 533.3 1280 566.7 1280 600C1280 633.3 1280 666.7 1280 683.3L1280 700Z" fill="#590ce8" stroke-linecap="round" stroke-linejoin="miter"></path></svg>