<svg
        id="visual"
        viewBox="0 0 1280 700"
        width="1280"
        height="700"
        xmlns="http://www.w3.org/2000/svg"
        xmlns:xlink="http://www.w3.org/1999/xlink"
        version="1.1"
      >
        <rect x="0" y="0" width="1280" height="700" fill="transparent"></rect>

        <g transform="translate(1500, 0)">
          <path
            d="M0 420C-50.7 396.8 -101.3 373.7 -144.3 348.3C-187.2 322.9 -222.4 295.3 -265.9 265.9C-309.3 236.5 -361 205.3 -388 160.7C-415.1 116.1 -417.5 58.1 -420 0L0 0Z"
            fill="#590ce8"
          ></path>
        </g>
        <g transform="translate(0, 800)"  fill="#590ce8">
          <defs>
            <linearGradient gradientTransform="rotate(30)" id="grad">
              <stop offset="45%" stopColor="#00CC99"></stop>
              <stop offset="99%" stopColor="#5352ed"></stop>
            </linearGradient>
          </defs>
          <path
            d="M0 -420C45.3 -390.8 90.7 -361.6 143.1 -345.5C195.6 -329.4 255.1 -326.5 297 -297C338.9 -267.5 363.1 -211.6 380.6 -157.7C398.2 -103.8 409.1 -51.9 420 0L0 0Z"
            fill="#590ce8"
          ></path>
        </g>
      </svg>