<svg id="visual" viewBox="0 0 1280 700" width="1280" height="700" xmlns="http://www.w3.org/2000/svg" xmlns:xlink="http://www.w3.org/1999/xlink" version="1.1"><rect x="0" y="0" width="1280" height="700" fill="#ffffff"></rect><defs><linearGradient id="grad1_0" x1="45.3%" y1="0%" x2="100%" y2="100%"><stop offset="13.428571428571429%" stop-color="#ffffff" stop-opacity="1"></stop><stop offset="86.57142857142857%" stop-color="#ffffff" stop-opacity="1"></stop></linearGradient></defs><defs><linearGradient id="grad2_0" x1="0%" y1="0%" x2="54.7%" y2="100%"><stop offset="13.428571428571429%" stop-color="#ffffff" stop-opacity="1"></stop><stop offset="86.57142857142857%" stop-color="#ffffff" stop-opacity="1"></stop></linearGradient></defs><g transform="translate(1280, 0)"><path d="M0 525C-55.4 485.7 -110.7 446.4 -176.8 426.8C-242.9 407.2 -319.7 407.4 -371.2 371.2C-422.7 335.1 -448.9 262.7 -470.3 194.8C-491.7 126.9 -508.3 63.4 -525 0L0 0Z" fill="#a29bfe"></path></g><g transform="translate(0, 700)"><path d="M0 -525C67.8 -517.3 135.5 -509.7 200.9 -485C266.3 -460.4 329.3 -418.8 363.5 -363.5C397.6 -308.1 402.9 -238.9 425 -176C447.1 -113.2 486 -56.6 525 0L0 0Z" fill="#a29bfe"></path></g></svg>