<svg id="visual" viewBox="0 0 1280 700" width="1280" height="700" xmlns="http://www.w3.org/2000/svg" xmlns:xlink="http://www.w3.org/1999/xlink" version="1.1"><path d="M711 0L794 0L794 100L645 100L645 200L609 200L609 300L794 300L794 400L611 400L611 500L607 500L607 600L719 600L719 700L0 700L0 600L0 600L0 500L0 500L0 400L0 400L0 300L0 300L0 200L0 200L0 100L0 100L0 0L0 0Z" fill="#590ce8"></path><path d="M571 0L468 0L468 100L383 100L383 200L488 200L488 300L602 300L602 400L389 400L389 500L681 500L681 600L666 600L666 700L0 700L0 600L0 600L0 500L0 500L0 400L0 400L0 300L0 300L0 200L0 200L0 100L0 100L0 0L0 0Z" fill="#5c00ba"></path><path d="M373 0L167 0L167 100L242 100L242 200L157 200L157 300L308 300L308 400L364 400L364 500L400 500L400 600L372 600L372 700L0 700L0 600L0 600L0 500L0 500L0 400L0 400L0 300L0 300L0 200L0 200L0 100L0 100L0 0L0 0Z" fill="#560090"></path></svg>